<svg width="1200" height="630" viewBox="0 0 1200 630" xmlns="http://www.w3.org/2000/svg">
  <defs>
    <linearGradient id="bg-ai-real-estate-chatbot" x1="0%" y1="0%" x2="100%" y2="100%">
      <stop offset="0%" style="stop-color:#4facfe;stop-opacity:1" />
      <stop offset="100%" style="stop-color:#00f2fe;stop-opacity:1" />
    </linearGradient>

    <linearGradient id="overlay-ai-real-estate-chatbot" x1="0%" y1="0%" x2="100%" y2="100%">
      <stop offset="0%" style="stop-color:#ffffff;stop-opacity:0.1" />
      <stop offset="100%" style="stop-color:#ffffff;stop-opacity:0" />
    </linearGradient>

    <filter id="glow">
      <feGaussianBlur stdDeviation="10" result="coloredBlur"/>
      <feMerge>
        <feMergeNode in="coloredBlur"/>
        <feMergeNode in="SourceGraphic"/>
      </feMerge>
    </filter>

    <filter id="shadow">
      <feDropShadow dx="0" dy="10" stdDeviation="20" flood-opacity="0.3"/>
    </filter>
  </defs>

  <!-- Background -->
  <rect width="1200" height="630" fill="url(#bg-ai-real-estate-chatbot)"/>

  <!-- Overlay pattern -->
  <rect width="1200" height="630" fill="url(#overlay-ai-real-estate-chatbot)"/>

  <!-- Geometric shapes -->
  <circle cx="1100" cy="100" r="200" fill="white" opacity="0.05"/>
  <circle cx="-50" cy="550" r="250" fill="white" opacity="0.05"/>
  <circle cx="200" cy="-50" r="150" fill="white" opacity="0.03"/>

  <!-- Grid pattern -->
  <defs>
    <pattern id="grid-ai-real-estate-chatbot" width="50" height="50" patternUnits="userSpaceOnUse">
      <path d="M 50 0 L 0 0 0 50" fill="none" stroke="white" stroke-width="0.5" opacity="0.1"/>
    </pattern>
  </defs>
  <rect width="1200" height="630" fill="url(#grid-ai-real-estate-chatbot)"/>

  <!-- Main content card -->
  <g filter="url(#shadow)">
    <rect x="80" y="120" width="500" height="400" rx="30" fill="white" opacity="0.15" />
    <rect x="80" y="120" width="500" height="400" rx="30" fill="none" stroke="white" stroke-width="2" opacity="0.3" />
  </g>

  <!-- Icon circle -->
  <g filter="url(#glow)">
    <circle cx="330" cy="220" r="60" fill="white" opacity="0.2"/>
    <circle cx="330" cy="220" r="60" fill="none" stroke="white" stroke-width="3" opacity="0.5"/>
    <svg x="300" y="190" width="60" height="60" viewBox="0 0 24 24" fill="none" stroke="white" stroke-width="2" stroke-linecap="round" stroke-linejoin="round">
      <path d="M21 15a2 2 0 01-2 2H7l-4 4V5a2 2 0 012-2h14a2 2 0 012 2z"/>
    <circle cx="9" cy="10" r="1" fill="white"/>
    <circle cx="12" cy="10" r="1" fill="white"/>
    <circle cx="15" cy="10" r="1" fill="white"/>
    </svg>
  </g>

  <!-- Title -->
  <text x="330" y="340" font-family="Inter, -apple-system, BlinkMacSystemFont, sans-serif" font-size="48" font-weight="800" fill="white" text-anchor="middle" letter-spacing="-0.02em">
    Real Estate AI
  </text>

  <!-- Subtitle -->
  <text x="330" y="385" font-family="Inter, -apple-system, BlinkMacSystemFont, sans-serif" font-size="28" font-weight="500" fill="white" opacity="0.9" text-anchor="middle">
    Chatbot Assistant
  </text>

  <!-- Tags -->
  <g transform="translate(150, 440)">
    
      <g transform="translate(0, 0)">
        <rect x="0" y="0" width="110" height="36" rx="18" fill="white" opacity="0.2"/>
        <rect x="0" y="0" width="110" height="36" rx="18" fill="none" stroke="white" stroke-width="1" opacity="0.5"/>
        <text x="55" y="24" font-family="Inter, sans-serif" font-size="14" font-weight="600" fill="white" text-anchor="middle">
          AI
        </text>
      </g>
    
      <g transform="translate(120, 0)">
        <rect x="0" y="0" width="110" height="36" rx="18" fill="white" opacity="0.2"/>
        <rect x="0" y="0" width="110" height="36" rx="18" fill="none" stroke="white" stroke-width="1" opacity="0.5"/>
        <text x="55" y="24" font-family="Inter, sans-serif" font-size="14" font-weight="600" fill="white" text-anchor="middle">
          Chatbot
        </text>
      </g>
    
      <g transform="translate(240, 0)">
        <rect x="0" y="0" width="110" height="36" rx="18" fill="white" opacity="0.2"/>
        <rect x="0" y="0" width="110" height="36" rx="18" fill="none" stroke="white" stroke-width="1" opacity="0.5"/>
        <text x="55" y="24" font-family="Inter, sans-serif" font-size="14" font-weight="600" fill="white" text-anchor="middle">
          NLP
        </text>
      </g>
    
  </g>

  <!-- Right side decorative elements -->
  <g opacity="0.4">
    <!-- Code window mockup -->
    <rect x="680" y="180" width="440" height="280" rx="12" fill="white" opacity="0.1"/>
    <rect x="680" y="180" width="440" height="280" rx="12" fill="none" stroke="white" stroke-width="2" opacity="0.3"/>

    <!-- Window controls -->
    <circle cx="700" cy="200" r="6" fill="white" opacity="0.5"/>
    <circle cx="720" cy="200" r="6" fill="white" opacity="0.5"/>
    <circle cx="740" cy="200" r="6" fill="white" opacity="0.5"/>

    <!-- Code lines -->
    <rect x="700" y="230" width="380" height="8" rx="4" fill="white" opacity="0.3"/>
    <rect x="700" y="255" width="320" height="8" rx="4" fill="white" opacity="0.25"/>
    <rect x="700" y="280" width="360" height="8" rx="4" fill="white" opacity="0.3"/>
    <rect x="700" y="305" width="280" height="8" rx="4" fill="white" opacity="0.2"/>
    <rect x="700" y="330" width="340" height="8" rx="4" fill="white" opacity="0.3"/>
    <rect x="700" y="355" width="300" height="8" rx="4" fill="white" opacity="0.25"/>
    <rect x="700" y="380" width="360" height="8" rx="4" fill="white" opacity="0.3"/>
    <rect x="700" y="405" width="320" height="8" rx="4" fill="white" opacity="0.2"/>
  </g>

  <!-- OHWP Studios branding -->
  <text x="1120" y="600" font-family="Inter, sans-serif" font-size="16" font-weight="700" fill="white" opacity="0.6" text-anchor="end">
    OHWP STUDIOS
  </text>

  <!-- Decorative corner accents -->
  <path d="M 0 0 L 100 0 L 0 100 Z" fill="white" opacity="0.05"/>
  <path d="M 1200 630 L 1100 630 L 1200 530 Z" fill="white" opacity="0.05"/>
</svg>